<svg xmlns="http://www.w3.org/2000/svg" width="1920" height="630" viewBox="0 0 1920 630">
  <g id="Group_4" data-name="Group 4" transform="translate(-1739 1849)">
    <g id="Group_3" data-name="Group 3" transform="translate(2062 -840)">
      <rect id="Rectangle_1" data-name="Rectangle 1" width="1920" height="630" transform="translate(-323 -1009)" fill="#efefef"/>
    </g>
    <path id="Union_2" data-name="Union 2" d="M79.367,157H6.31A8,8,0,0,1,.055,144.013L44.6,88.144a8,8,0,0,1,12.511,0l30.214,37.9L144.7,53.478a8,8,0,0,1,12.55,0l71.606,90.56A8,8,0,0,1,222.579,157Zm-47.7-134.23A22.782,22.782,0,1,1,54.449,45.542,22.776,22.776,0,0,1,31.667,22.771Z" transform="translate(2584.547 -1612.5)" fill="#d2d2d2"/>
  </g>
</svg>
